<svg width="186" height="186" viewBox="0 0 186 186" fill="none" xmlns="http://www.w3.org/2000/svg">
<g opacity="0.4">
<path d="M129.681 97.4285L125.375 90.3611C124.638 89.1522 124.316 87.0534 124.643 85.7065L126.605 77.6253C127.404 74.3329 125.365 70.9852 122.072 70.1858L114.028 68.233C112.681 67.906 110.964 66.6571 110.228 65.4482L105.921 58.3807C104.165 55.498 100.349 54.5715 97.466 56.3279L90.3237 60.616C89.1522 61.3616 87.0534 61.6841 85.6691 61.348L77.6253 59.3951C74.3329 58.5958 70.9852 60.6356 70.1859 63.9279L68.233 71.9718C67.906 73.3186 66.6571 75.036 65.4482 75.7726L58.3808 80.0787C55.498 81.8352 54.5715 85.6513 56.328 88.5341L60.6342 95.6015C61.3707 96.8105 61.6932 98.9093 61.3662 100.256L59.4133 108.3C58.614 111.592 60.6538 114.94 63.9461 115.739L71.99 117.692C73.3368 118.019 75.0542 119.268 75.7908 120.477L80.0969 127.545C81.8534 130.427 85.6695 131.354 88.5523 129.597L95.6198 125.291C96.8287 124.555 98.9275 124.232 100.274 124.559L108.318 126.512C111.611 127.311 114.958 125.271 115.758 121.979L117.71 113.935C118.037 112.588 119.286 110.871 120.495 110.135L127.563 105.828C130.549 104.137 131.475 100.32 129.681 97.4285ZM80.7597 78.1428C81.2593 76.0851 83.3516 74.8102 85.4094 75.3098C87.4671 75.8094 88.7419 77.9017 88.2424 79.9594C87.7428 82.0172 85.6879 83.3011 83.5927 82.7925C81.535 82.2929 80.2602 80.2006 80.7597 78.1428ZM80.5527 103.963C79.8552 104.388 79.0808 104.478 78.3699 104.305C77.6591 104.132 77.0118 103.698 76.5869 103.001C75.7653 101.652 76.2013 99.8563 77.5497 99.0348L105.447 82.0367C106.796 81.2151 108.592 81.6511 109.413 82.9995C110.235 84.3479 109.799 86.1437 108.45 86.9653L80.5527 103.963ZM100.591 110.69C98.4956 110.182 97.2208 108.089 97.7204 106.032C98.2199 103.974 100.312 102.699 102.37 103.199C104.428 103.698 105.703 105.79 105.203 107.848C104.703 109.906 102.649 111.19 100.591 110.69Z" fill="#FF981F"/>
<path d="M39.0191 97.4614L31.8422 85.6823C28.9148 80.8776 30.4589 74.5173 35.2635 71.5899L47.0425 64.4128C49.0574 63.1852 51.1389 60.3229 51.6839 58.0781L54.9387 44.6716C56.2709 39.1843 61.8505 35.7849 67.3377 37.1171L80.7441 40.3718C82.9889 40.9168 86.4869 40.3796 88.5017 39.152L100.281 31.9749C105.085 29.0474 111.446 30.5916 114.373 35.3962L121.55 47.1754C122.778 49.1902 125.64 51.2715 127.885 51.8165L141.291 55.0714C146.779 56.4035 150.178 61.9829 148.846 67.4702L145.591 80.8767C145.046 83.1215 145.583 86.6196 146.811 88.6344L153.988 100.414C156.916 105.218 155.371 111.579 150.567 114.506L138.788 121.683C136.773 122.911 134.691 125.773 134.146 128.018L130.892 141.423C129.559 146.911 123.98 150.311 118.493 148.979L105.086 145.724C102.841 145.179 99.3434 145.716 97.3286 146.944L85.5494 154.121C80.7447 157.048 74.3844 155.504 71.457 150.7L64.2801 138.92C63.0525 136.906 60.1902 134.824 57.9454 134.279L44.5391 131.025C39.0518 129.692 35.6523 124.112 36.9845 118.625L40.2391 105.219C40.7992 102.912 40.2618 99.4139 39.0191 97.4614Z" stroke="#FF981F" stroke-width="2" stroke-linecap="round" stroke-linejoin="round"/>
</g>
</svg>
