<svg xmlns="http://www.w3.org/2000/svg" width="112" height="112" viewBox="0 0 112 112" fill="none">
  <path d="M92.6812 60.4285L88.3751 53.3611C87.6385 52.1522 87.316 50.0534 87.643 48.7065L89.605 40.6253C90.4043 37.3329 88.3645 33.9852 85.0722 33.1858L77.0283 31.233C75.6815 30.906 73.9641 29.6571 73.2275 28.4482L68.9214 21.3807C67.1649 18.498 63.3488 17.5715 60.466 19.3279L53.3237 23.616C52.1522 24.3616 50.0534 24.6841 48.6691 24.348L40.6253 22.3951C37.3329 21.5958 33.9852 23.6356 33.1859 26.9279L31.233 34.9718C30.906 36.3186 29.6571 38.036 28.4482 38.7726L21.3808 43.0787C18.498 44.8352 17.5715 48.6513 19.328 51.5341L23.6342 58.6015C24.3707 59.8105 24.6932 61.9093 24.3662 63.2561L22.4133 71.3C21.614 74.5923 23.6538 77.9401 26.9461 78.7394L34.99 80.6923C36.3368 81.0193 38.0542 82.2682 38.7908 83.4771L43.0969 90.5445C44.8534 93.4273 48.6695 94.3538 51.5523 92.5973L58.6198 88.2911C59.8287 87.5545 61.9275 87.2321 63.2744 87.5591L71.3182 89.512C74.6105 90.3113 77.9583 88.2715 78.7576 84.9791L80.7105 76.9353C81.0375 75.5884 82.2864 73.8711 83.4953 73.1345L90.5627 68.8283C93.5486 67.1365 94.4751 63.3204 92.6812 60.4285ZM43.7597 41.1428C44.2593 39.0851 46.3516 37.8102 48.4094 38.3098C50.4671 38.8094 51.7419 40.9017 51.2424 42.9594C50.7428 45.0172 48.6879 46.3011 46.5927 45.7925C44.535 45.2929 43.2602 43.2006 43.7597 41.1428ZM43.5527 66.9634C42.8552 67.3883 42.0808 67.4776 41.3699 67.305C40.6591 67.1325 40.0118 66.698 39.5869 66.0006C38.7653 64.6522 39.2013 62.8563 40.5497 62.0348L68.4475 45.0367C69.7959 44.2151 71.5917 44.6511 72.4133 45.9995C73.2348 47.3479 72.7988 49.1437 71.4505 49.9653L43.5527 66.9634ZM63.5908 73.6902C61.4956 73.1816 60.2208 71.0893 60.7204 69.0315C61.2199 66.9738 63.3123 65.6989 65.37 66.1985C67.4277 66.6981 68.7026 68.7904 68.203 70.8481C67.7034 72.9059 65.6485 74.1898 63.5908 73.6902Z" fill="#FF981F"/>
</svg>