<svg width="127" height="186" viewBox="0 0 127 186" fill="none" xmlns="http://www.w3.org/2000/svg">
<g id="vuesax/linear/discount-shape">
<g id="vuesax/linear/discount-shape_2">
<path id="Vector" d="M39.0191 97.4615L31.8422 85.6823C28.9147 80.8777 30.4589 74.5174 35.2635 71.59L47.0425 64.4129C49.0574 63.1852 51.1389 60.323 51.6839 58.0782L54.9387 44.6716C56.2709 39.1844 61.8505 35.7849 67.3377 37.1171L80.7441 40.3719C82.9889 40.9169 86.4869 40.3797 88.5017 39.152L100.281 31.9749C105.085 29.0475 111.446 30.5916 114.373 35.3963L121.55 47.1755C122.778 49.1903 125.64 51.2716 127.885 51.8166L141.291 55.0714C146.779 56.4036 150.178 61.983 148.846 67.4702L145.591 80.8768C145.046 83.1216 145.583 86.6196 146.811 88.6345L153.988 100.414C156.916 105.218 155.371 111.579 150.567 114.506L138.788 121.683C136.773 122.911 134.691 125.773 134.146 128.018L130.892 141.424C129.559 146.911 123.98 150.311 118.493 148.979L105.086 145.724C102.841 145.179 99.3434 145.716 97.3286 146.944L85.5493 154.121C80.7447 157.048 74.3844 155.504 71.457 150.7L64.2801 138.921C63.0525 136.906 60.1902 134.824 57.9454 134.279L44.539 131.025C39.0518 129.692 35.6523 124.112 36.9845 118.625L40.2391 105.219C40.7992 102.912 40.2618 99.414 39.0191 97.4615Z" stroke="#FF981F" stroke-width="2" stroke-linecap="round" stroke-linejoin="round"/>
</g>
</g>
</svg>
