<svg width="139" height="123" viewBox="0 0 139 123" fill="none" xmlns="http://www.w3.org/2000/svg">
<g id="Group 11166" opacity="0.4">
<path id="Vector" fill-rule="evenodd" clip-rule="evenodd" d="M13.8176 93.2744C11.8863 88.3314 11.0565 83.0267 11.3859 77.7301C11.7153 72.4336 13.1961 67.2725 15.7249 62.607C23.3039 46.3447 40.068 30.2331 62.3533 19.6426C84.6386 9.05202 107.526 6.54242 124.491 11.2103C129.596 12.3192 134.39 14.5526 138.523 17.7478C142.656 20.943 146.024 25.0197 148.383 29.681C154.456 43.283 149.487 61.051 135.132 77.3133C135.008 77.4513 134.94 77.63 134.94 77.8152C134.94 78.0004 135.008 78.1791 135.132 78.3171L155.209 101.506L117.213 93.4752C117.135 93.4391 117.049 93.4204 116.962 93.4204C116.876 93.4204 116.79 93.4391 116.711 93.4752C111.363 97.1578 105.723 100.398 99.8469 103.162C77.5114 113.753 54.674 116.313 37.709 111.645C32.6134 110.547 27.8259 108.329 23.6936 105.151C19.5613 101.974 16.1878 97.9169 13.8176 93.2744Z" fill="#1A96F0"/>
<path id="Vector_2" d="M5.81249 63.2555L5.82418 63.2339L5.83455 63.2117C14.5068 44.6283 33.7435 26.1293 59.4028 13.9516C85.0585 1.7755 111.341 -1.07451 130.742 4.25662L130.764 4.26246L130.785 4.26713C136.575 5.52314 142.011 8.05269 146.698 11.6716C151.38 15.2865 155.197 19.8974 157.872 25.1693C164.7 40.4678 159.169 60.6532 142.666 79.3259C142.391 79.6335 142.239 80.0315 142.239 80.4441C142.239 80.8547 142.389 81.2509 142.662 81.5579C142.664 81.5597 142.665 81.5616 142.667 81.5634L164.314 106.533L122.773 97.7645C122.604 97.7013 122.425 97.6688 122.245 97.6688C122.029 97.6688 121.815 97.7153 121.618 97.8055L121.554 97.8346L121.496 97.8744C115.344 102.105 108.856 105.827 102.097 109.003L102.094 109.004C76.3785 121.181 50.1541 124.088 30.7543 118.757L30.7324 118.751L30.7102 118.746C24.931 117.503 19.5014 114.991 14.815 111.392C10.1393 107.802 6.32018 103.219 3.63317 97.9763C1.45185 92.3847 0.515102 86.3858 0.888116 80.3961C1.26196 74.393 2.94248 68.5435 5.81249 63.2555Z" stroke="#1A96F0" stroke-width="1.6165"/>
<path id="Vector_3" d="M42.2271 71.19C42.6521 71.0586 43.107 71.0586 43.532 71.19C43.9016 71.4059 44.1853 71.7427 44.3351 72.1437C44.4653 72.5347 44.4653 72.9573 44.3351 73.3483C44.2956 73.5624 44.2129 73.7663 44.0921 73.9475C43.9713 74.1287 43.8149 74.2835 43.6325 74.4023L45.8911 79.4216C46.0171 79.8815 46.0171 80.3669 45.8911 80.8269C45.8633 81.2584 45.6858 81.6667 45.3892 81.9813C45.137 82.2863 44.778 82.4838 44.3853 82.5334C43.948 82.6948 43.4675 82.6948 43.0301 82.5334C42.81 82.3894 42.622 82.2015 42.478 81.9813C42.3425 81.7919 42.2249 81.5903 42.1267 81.379L39.9182 76.3598L33.3933 79.3211L35.6017 84.0894C35.6301 84.306 35.6301 84.5253 35.6017 84.7419C35.6494 84.9568 35.6494 85.1795 35.6017 85.3944C35.6014 85.6304 35.5522 85.8637 35.4572 86.0797C35.3622 86.2957 35.2234 86.4896 35.0496 86.6492C34.9162 86.7988 34.7542 86.9203 34.5732 87.0065C34.3922 87.0927 34.1958 87.1418 33.9956 87.1511C33.5592 87.1532 33.1287 87.0499 32.7408 86.85C32.3119 86.5946 31.9773 86.2072 31.7871 85.7457L25.1618 71.3406C25.0637 71.1105 25.0132 70.8629 25.0132 70.6128C25.0132 70.3627 25.0637 70.1152 25.1618 69.885C25.267 69.4468 25.493 69.0468 25.8142 68.7306C25.9646 68.5679 26.1471 68.4381 26.35 68.3493C26.553 68.2605 26.7722 68.2146 26.9938 68.2146C27.2153 68.2146 27.4345 68.2605 27.6375 68.3493C27.8405 68.4381 28.0229 68.5679 28.1733 68.7306L28.4744 69.082V69.4835L31.3856 75.8077L37.8604 72.7962L35.0998 66.8233C34.9998 66.445 34.9998 66.0472 35.0998 65.6689C35.0898 65.2091 35.2508 64.762 35.5515 64.4141C35.8229 64.0881 36.1928 63.8592 36.6056 63.7616C36.9976 63.6383 37.4181 63.6383 37.8102 63.7616C38.2456 63.9608 38.5872 64.3204 38.7638 64.7654L42.2271 71.19ZM63.8599 71.7923C63.9865 72.1839 63.9865 72.6054 63.8599 72.9969C63.7851 73.3555 63.6112 73.6859 63.358 73.9506C63.1417 74.2047 62.8364 74.3664 62.5047 74.4023C62.1165 74.5488 61.6882 74.5488 61.3001 74.4023C60.9236 74.2338 60.6081 73.9534 60.3966 73.5993C60.2258 73.2475 60.0243 72.9116 59.7943 72.5954C59.0916 71.6418 58.3889 70.7383 57.5357 69.7846L54.1226 71.3908L50.7095 72.9969V74.7035C50.7095 75.3058 50.7095 75.7575 51.0609 76.3096C51.0372 76.7276 51.0372 77.1465 51.0609 77.5644C51.1864 77.9904 51.1864 78.4435 51.0609 78.8694C50.9434 79.3127 50.6777 79.7023 50.308 79.9736C49.9681 80.1006 49.5938 80.1006 49.2539 79.9736C48.8838 79.9195 48.5361 79.7631 48.2501 79.5219C47.8804 79.2506 47.6147 78.8609 47.4972 78.4177C47.2937 77.8127 47.1426 77.1914 47.0455 76.5606L46.7443 74.7035C46.1365 71.1371 45.8009 67.5295 45.7405 63.9122C45.69 63.6131 45.69 63.3077 45.7405 63.0087V61.1014C45.6887 60.7688 45.6887 60.4302 45.7405 60.0976C45.787 59.7651 45.8888 59.4428 46.0417 59.1439C46.2378 58.8507 46.5176 58.6234 46.8447 58.4914C47.2794 58.3156 47.7653 58.3156 48.1999 58.4914C50.0156 59.1697 51.7103 60.1357 53.2191 61.3524C54.776 62.5422 56.2672 63.8156 57.6862 65.167L58.7905 64.6651C59.1953 64.5152 59.6404 64.5152 60.0453 64.6651C60.3877 64.7938 60.6846 65.0207 60.8986 65.3175C61.0581 65.5957 61.1604 65.9028 61.1997 66.221C61.2725 66.5347 61.2725 66.861 61.1997 67.1747C61.0429 67.4865 60.8203 67.7604 60.5472 67.9777L61.9526 69.7345C62.4043 70.3368 62.8058 70.9893 63.2074 71.6418L63.8599 71.7923ZM54.6747 66.7731C53.9692 66.0679 53.2144 65.4137 52.4161 64.8156C51.6587 64.1698 50.8533 63.5826 50.0068 63.0589V68.8812L52.2655 67.7769L54.6747 66.7731ZM75.5546 64.0627C76.026 64.0835 76.4877 64.2032 76.9098 64.4141C77.2342 64.602 77.4961 64.8813 77.6627 65.2172C77.789 65.5744 77.789 65.9642 77.6627 66.3214C77.522 66.7678 77.2616 67.1671 76.9098 67.4758C76.688 67.6703 76.4329 67.8234 76.1569 67.9276L74.8018 68.58L72.5431 69.6341L69.1802 71.19L68.1764 71.692C68.0019 71.7665 67.8141 71.8049 67.6243 71.8049C67.4345 71.8049 67.2467 71.7665 67.0722 71.692C66.7286 71.5919 66.4283 71.3799 66.2189 71.0896C65.9229 70.7544 65.67 70.3834 65.466 69.9854C65.2248 69.5878 65.023 69.1675 64.8637 68.7306L64.3618 67.6766L63.5085 65.7693L62.5047 63.5106C62.2035 62.7577 61.8522 62.0551 61.5008 61.3022L60.6476 59.3949C60.1958 58.391 59.7943 57.588 59.5433 56.9857C59.347 56.511 59.1794 56.0249 59.0414 55.5301C58.9691 55.2333 58.9691 54.9234 59.0414 54.6266C59.1555 54.3709 59.3078 54.1339 59.4931 53.924C59.6762 53.7056 59.9212 53.5481 60.1958 53.4722H61.0491C61.3128 53.4063 61.5885 53.4063 61.8522 53.4722C61.9831 53.5254 62.1005 53.6071 62.196 53.7112C62.2915 53.8154 62.3626 53.9395 62.4043 54.0745C63.4583 56.283 64.5124 58.4914 65.466 60.6999C66.4197 62.9083 67.4235 65.0666 68.4274 67.275L71.8906 65.6187L75.4041 63.9122L75.5546 64.0627ZM89.2069 57.8389C89.6605 57.8264 90.1097 57.93 90.5119 58.1401C90.8453 58.3185 91.1101 58.6026 91.2645 58.9479C91.419 59.2931 91.4544 59.6799 91.3652 60.0474C91.2182 60.5035 90.9386 60.9054 90.5621 61.2018C90.3516 61.3865 90.1148 61.5388 89.8594 61.6535L88.454 62.306L86.1953 63.3601L82.8325 64.916C82.5137 65.1132 82.1777 65.2812 81.8287 65.4179C81.6541 65.4925 81.4663 65.5309 81.2765 65.5309C81.0868 65.5309 80.8989 65.4925 80.7244 65.4179C80.5494 65.379 80.3839 65.3057 80.2374 65.2023C80.091 65.0989 79.9665 64.9675 79.8712 64.8156C79.5752 64.4803 79.3223 64.1094 79.1183 63.7114L78.516 62.4566C78.3412 62.1161 78.1903 61.7639 78.0642 61.4026C77.7631 60.8505 77.5121 60.198 77.1608 59.4953L76.4079 57.2868C76.1067 56.5339 75.7554 55.8312 75.4041 55.0784L74.5508 53.1711C74.099 52.1672 73.7477 51.4143 73.4967 50.7618C73.266 50.2957 73.0811 49.8082 72.9446 49.3063C72.8413 49.014 72.8413 48.6951 72.9446 48.4028C73.0202 48.1398 73.1579 47.8987 73.3462 47.7001C73.5423 47.5085 73.7842 47.3703 74.0489 47.2986C74.3309 47.2467 74.6201 47.2467 74.9021 47.2986C75.1649 47.2259 75.4425 47.2259 75.7052 47.2986C75.9513 47.4321 76.1456 47.6441 76.2573 47.9009C77.3114 50.1093 78.3654 52.3178 79.319 54.5262C80.2727 56.7347 81.2765 58.9432 82.2804 61.1014L85.7436 59.4451L89.2571 57.7385L89.2069 57.8389ZM105.469 44.9898C105.569 46.1923 105.569 47.401 105.469 48.6036C105.465 49.796 105.279 50.9809 104.917 52.117C104.585 53.2167 104.039 54.2401 103.311 55.1286C102.551 56.0861 101.569 56.8441 100.45 57.337L98.4924 57.9895C97.9917 58.0388 97.4874 58.0388 96.9867 57.9895C96.1767 58.1694 95.3372 58.1694 94.5273 57.9895C93.7462 57.7411 93.0031 57.3864 92.3188 56.9355C91.6616 56.4454 91.071 55.8717 90.5621 55.2289C90.0435 54.6253 89.5893 53.9693 89.2069 53.2714C88.5239 52.0895 88.0486 50.7993 87.8015 49.4569C87.5522 48.1131 87.5522 46.735 87.8015 45.3913C87.9495 44.0373 88.3587 42.7248 89.0061 41.5265C89.6233 40.3134 90.5387 39.2772 91.6663 38.515C92.2852 38.1045 92.9404 37.7517 93.6238 37.4609C94.3044 37.2115 95.0119 37.043 95.7318 36.959H97.4886L99.1951 37.2602C99.9445 37.5092 100.654 37.8642 101.303 38.3142C101.953 38.7559 102.529 39.298 103.01 39.9203C103.595 40.6864 104.099 41.5105 104.515 42.3798C104.867 43.1828 105.168 44.0863 105.469 44.9898ZM100.45 53.0205C100.883 52.5537 101.224 52.0086 101.454 51.4143C101.697 50.8183 101.865 50.1945 101.956 49.5572C102.032 48.9237 102.032 48.2834 101.956 47.6499V45.7426C101.733 44.9744 101.465 44.2202 101.153 43.484C100.829 42.7399 100.329 42.0854 99.697 41.5767C99.1728 41.1105 98.5302 40.7979 97.8399 40.6732C97.1451 40.524 96.4266 40.524 95.7318 40.6732C95.0307 40.7725 94.3613 41.0299 93.7744 41.4261C93.1847 41.8063 92.7149 42.3458 92.4192 42.9821C91.9916 43.848 91.7198 44.7824 91.6161 45.7426C91.4671 46.7073 91.4671 47.6891 91.6161 48.6538C91.7574 49.4649 91.9932 50.2566 92.3188 51.0128C92.6507 51.7827 93.1278 52.4814 93.7242 53.0707C94.1826 53.4905 94.7087 53.8299 95.2801 54.0745C95.8574 54.303 96.4673 54.4386 97.0871 54.4761C97.7068 54.4814 98.3214 54.3619 98.894 54.1247C99.4681 53.8668 99.9812 53.4905 100.4 53.0205H100.45ZM113.249 48.1519C113.394 48.5919 113.394 49.067 113.249 49.507C113.195 49.9077 113.04 50.288 112.797 50.6113C112.568 50.9376 112.256 51.1974 111.894 51.3641C111.53 51.5245 111.137 51.6099 110.739 51.6151C110.337 51.6594 109.932 51.5712 109.585 51.3641C109.184 51.1413 108.854 50.811 108.631 50.4105C108.469 49.9907 108.469 49.5253 108.631 49.1055C108.674 48.6867 108.83 48.2875 109.083 47.9511C109.355 47.6466 109.677 47.3919 110.037 47.1982C110.409 47.0042 110.822 46.901 111.241 46.897C111.62 46.7993 112.017 46.7993 112.396 46.897C112.614 47.0389 112.802 47.2229 112.949 47.4384C113.095 47.6539 113.197 47.8964 113.249 48.1519ZM119.623 45.2407C119.765 45.6642 119.765 46.1222 119.623 46.5457C119.588 46.9511 119.431 47.3361 119.172 47.6499C118.942 47.9763 118.63 48.236 118.268 48.4028C117.916 48.6026 117.518 48.7065 117.114 48.704C116.714 48.7218 116.316 48.6353 115.959 48.453C115.564 48.2395 115.248 47.9054 115.056 47.4994C114.916 47.3058 114.817 47.0858 114.766 46.8528C114.714 46.6198 114.71 46.3787 114.755 46.1442C114.799 45.741 114.955 45.3582 115.206 45.0399C115.464 44.7213 115.79 44.4641 116.16 44.2871C116.538 44.1016 116.946 43.9827 117.365 43.9357C117.769 43.9332 118.167 44.0371 118.519 44.2369C118.764 44.3159 118.989 44.4463 119.18 44.6195C119.37 44.7926 119.521 45.0044 119.623 45.2407ZM123.839 44.3874C123.717 43.9611 123.717 43.5088 123.839 43.0824C123.884 42.6946 124.041 42.3284 124.291 42.0284C124.53 41.7571 124.82 41.5355 125.144 41.3759C125.491 41.2947 125.852 41.2947 126.198 41.3759C126.555 41.4168 126.898 41.5368 127.202 41.7273C127.583 41.9436 127.883 42.2785 128.056 42.6809C128.201 42.9599 128.277 43.2698 128.277 43.5844C128.277 43.8989 128.201 44.2088 128.056 44.4878C127.843 45.0081 127.451 45.4353 126.951 45.6924C126.413 45.8687 125.833 45.8687 125.295 45.6924C124.975 45.5887 124.68 45.419 124.429 45.1942C124.178 44.9694 123.977 44.6946 123.839 44.3874ZM117.013 28.9283C116.904 28.4661 116.904 27.985 117.013 27.5229C117.149 27.167 117.42 26.8787 117.766 26.7198C117.931 26.6434 118.111 26.6038 118.293 26.6038C118.475 26.6038 118.655 26.6434 118.82 26.7198C119.276 26.8162 119.695 27.0428 120.025 27.3723C120.527 28.3092 120.978 29.2127 121.38 30.0827C121.832 30.936 122.233 31.739 122.585 32.5421C122.978 33.3092 123.329 34.0967 123.639 34.9011L124.693 37.3103C124.816 37.5511 124.88 37.8178 124.88 38.0883C124.88 38.3589 124.816 38.6255 124.693 38.8663C124.612 39.0849 124.485 39.2834 124.321 39.4481C124.156 39.6127 123.958 39.7396 123.739 39.8199C123.304 39.9958 122.819 39.9958 122.384 39.8199C122.13 39.7585 121.897 39.6345 121.704 39.4591C121.511 39.2837 121.365 39.0626 121.28 38.8161L116.813 29.1792L117.013 28.9283ZM131.619 40.9242C131.497 40.4978 131.497 40.0456 131.619 39.6192C131.664 39.2314 131.821 38.8651 132.071 38.5651C132.307 38.2908 132.598 38.0686 132.924 37.9127C133.27 37.8212 133.633 37.8212 133.978 37.9127C134.378 37.9362 134.764 38.0708 135.092 38.3013C135.42 38.5318 135.678 38.8491 135.835 39.2177C135.981 39.4967 136.056 39.8066 136.056 40.1211C136.056 40.4357 135.981 40.7456 135.835 41.0246C135.644 41.4289 135.343 41.7706 134.965 42.0099C134.587 42.2492 134.149 42.3763 133.702 42.3763C133.255 42.3763 132.817 42.2492 132.439 42.0099C132.062 41.7706 131.76 41.4289 131.569 41.0246L131.619 40.9242ZM124.843 25.4148C124.714 24.9724 124.714 24.502 124.843 24.0596C124.999 23.7161 125.263 23.4337 125.596 23.2566C125.77 23.1791 125.958 23.139 126.148 23.139C126.339 23.139 126.527 23.1791 126.7 23.2566C127.157 23.3529 127.575 23.5796 127.905 23.9091C128.373 24.8794 128.825 25.7829 129.26 26.6194C129.662 27.4225 130.063 28.2758 130.415 29.0788C130.766 29.8819 131.168 30.6348 131.519 31.4379L132.523 33.8471C132.635 34.091 132.694 34.3565 132.694 34.6251C132.694 34.8937 132.635 35.1591 132.523 35.4031C132.308 35.8273 131.954 36.1643 131.519 36.3567C131.084 36.5325 130.598 36.5325 130.164 36.3567C129.912 36.2754 129.682 36.1384 129.491 35.9559C129.3 35.7734 129.152 35.5501 129.059 35.3027L124.643 25.716L124.843 25.4148Z" fill="white"/>
</g>
</svg>
